<svg xmlns="http://www.w3.org/2000/svg" width="251" height="366" viewBox="0 0 251 366" fill="none"><path d="M160.183 233.819C110.015 189.508 42.0215 257.96 5.78364 207.462C-30.4542 156.963 112.995 126.404 174.902 220.5L160.183 233.819Z" fill="url(#paint0_linear_6_5564)"></path><path opacity="0.42" d="M163.57 218.693C139.836 184.339 71.5362 170.053 36.1133 186.657" stroke="#239B7E" stroke-width="1.76" stroke-linecap="round" stroke-linejoin="round"></path><path d="M170.089 257.172C170.293 168.856 123.97 70.9147 158.731 19.4738C193.492 -31.9672 232.098 24.2614 215.214 120.726C198.331 217.19 189.494 273.521 195.911 292.773L170.089 257.172Z" fill="url(#paint1_linear_6_5564)"></path><path opacity="0.42" d="M182.567 239.701C173.508 174.548 171.127 108.64 175.462 43.0034" stroke="#239B7E" stroke-width="2.13" stroke-linecap="round" stroke-linejoin="round"></path><path d="M151.092 247.418C136.118 168.194 20.8339 183.015 23.7115 108.196C26.5892 33.3777 185.649 110.386 174.953 245.712L151.092 247.418Z" fill="url(#paint2_linear_6_5564)"></path><path opacity="0.42" d="M165.531 235.55C168.357 185.332 113.962 121.234 67.9965 110.768" stroke="#239B7E" stroke-width="2.13" stroke-linecap="round" stroke-linejoin="round"></path><path d="M239.382 233.819H112.893V365.987H239.382V233.819Z" fill="#F1F9FF"></path><path d="M250.306 224.778H100.593V259.081H250.306V224.778Z" fill="#C5E3F9"></path><defs><linearGradient id="paint0_linear_6_5564" x1="-25.6374" y1="188.119" x2="183.325" y2="271.477" gradientUnits="userSpaceOnUse"><stop stop-color="#96FFA6"></stop><stop offset="1" stop-color="#2CC7CC"></stop></linearGradient><linearGradient id="paint1_linear_6_5564" x1="179.486" y1="-70.2678" x2="187.584" y2="307.339" gradientUnits="userSpaceOnUse"><stop stop-color="#96FFA6"></stop><stop offset="1" stop-color="#2CC7CC"></stop></linearGradient><linearGradient id="paint2_linear_6_5564" x1="70.1002" y1="73.7112" x2="139.25" y2="284.512" gradientUnits="userSpaceOnUse"><stop stop-color="#96FFA6"></stop><stop offset="1" stop-color="#52EDCC"></stop></linearGradient></defs></svg>