<svg xmlns="http://www.w3.org/2000/svg" width="169" height="365" viewBox="0 0 169 365" fill="none"><path d="M13.7677 238.402L1.20665 346.371H18.145L46.1072 222.035" fill="url(#paint0_linear_6_6197)"></path><path d="M54.3934 238.402L63.6312 346.371H80.5696L80.877 222.035" fill="url(#paint1_linear_6_6197)"></path><path d="M18.145 144.97L10.8836 244.082H89.8952L77.1439 141.998L18.145 144.97Z" fill="#1E2C66"></path><path d="M80.5257 346.372L108.546 360.909C108.967 361.126 109.302 361.477 109.498 361.907C109.695 362.337 109.741 362.821 109.629 363.28C109.518 363.739 109.255 364.148 108.884 364.44C108.512 364.732 108.053 364.891 107.58 364.891H64.5243C64.2346 364.89 63.9482 364.829 63.6831 364.712C63.418 364.596 63.1798 364.425 62.9833 364.212C62.7869 364 62.6364 363.748 62.5414 363.475C62.4463 363.201 62.4087 362.911 62.4308 362.622L63.6313 346.372H80.5257Z" fill="#1E2C66"></path><path d="M18.1596 346.372L46.1658 360.909C46.586 361.126 46.9212 361.477 47.1176 361.907C47.314 362.337 47.3602 362.821 47.2487 363.28C47.1372 363.739 46.8746 364.148 46.503 364.44C46.1313 364.732 45.6723 364.891 45.1996 364.891H2.11431C1.82337 364.892 1.53541 364.833 1.26855 364.717C1.00168 364.601 0.761685 364.431 0.563666 364.218C0.365646 364.005 0.213887 363.753 0.11794 363.478C0.0219934 363.204 -0.0160648 362.912 0.00616067 362.622L1.22127 346.372H18.1596Z" fill="#1E2C66"></path><path d="M101.915 97.1417L115.486 120.727L99.0158 125.514L88.3141 110.347L86.0888 102.251" fill="url(#paint2_linear_6_6197)"></path><path d="M87.7578 106.438L80.2036 97.9031C80.2036 98.1227 80.716 100.509 79.0178 107.375C78.8275 108.107 78.6371 108.839 78.4615 109.542C77.993 111.255 77.5245 112.909 77.1146 114.519C75.8636 118.586 75.4307 122.86 75.8409 127.095V127.402C75.8409 127.827 75.9434 128.237 76.0019 128.661C76.1483 129.891 76.2801 131.15 76.3972 132.38C76.8803 137.475 77.0999 141.998 77.0999 141.998L18.1011 144.926C18.1011 144.926 19.082 138.953 20.0189 132.336C20.2532 130.696 20.4874 129.013 20.6924 127.359C21.1316 124.065 21.4829 120.961 21.644 118.677C21.7475 117.202 21.3447 115.735 20.5021 114.519L20.3264 114.3C18.563 112.2 16.3107 110.567 13.7677 109.542C11.7587 108.632 9.67125 107.907 7.5311 107.375C7.13937 103.807 6.96824 100.218 7.01871 96.6294C7.01871 95.0776 7.01871 93.394 7.19439 91.6518C7.45619 87.3009 8.14265 82.986 9.24397 78.7687C9.70378 77.0787 10.261 75.4167 10.9129 73.7911C12.8456 68.4663 16.5047 63.9413 21.3073 60.9373C25.49 58.5881 30.0149 56.9086 34.7174 55.9597C36.4449 55.5791 38.2164 55.2863 40.0171 55.0667C46.7929 54.2262 53.6562 54.3989 60.3812 55.5791C61.0692 55.6962 61.7427 55.8133 62.4308 55.9597C67.3831 56.9298 72.1704 58.6061 76.6461 60.9373C79.573 62.4612 82.241 64.4375 84.5517 66.7932C86.6348 68.9929 88.5668 71.3308 90.3344 73.7911C91.5495 75.4747 92.6475 77.1437 93.6284 78.7833C96.1114 82.89 98.2418 87.1998 99.9968 91.6665C100.948 94.0674 101.461 95.8388 101.754 96.644C101.856 96.9661 101.9 97.1418 101.9 97.1418L87.7578 106.438Z" fill="url(#paint3_linear_6_6197)"></path><path d="M60.4251 55.5498C60.1469 59.1512 58.1852 63.265 51.4654 63.265C42.6815 63.265 40.5441 57.4091 40.0609 55.0374C46.8368 54.1969 53.7 54.3696 60.4251 55.5498Z" fill="white"></path><path d="M77.1438 142.013L18.145 144.941C18.145 144.941 19.1259 138.968 20.0628 132.351C20.2971 130.711 20.5313 129.027 20.7363 127.373C21.1755 124.079 21.5268 120.975 21.6879 118.692C21.782 117.206 21.3634 115.733 20.502 114.519L20.3263 114.3L26.358 105.706C27.6756 88.8555 30.179 80.0569 30.179 80.0569C31.7929 86.2933 32.3667 92.7533 31.8772 99.1766C31.0135 109.542 38.8312 105.604 38.2749 115.28C37.7186 124.957 54.613 131.472 65.0805 129.92C69.9703 129.203 73.601 128.866 76.0751 128.691C76.2215 129.92 76.3533 131.179 76.4704 132.409C76.9242 137.475 77.1438 142.013 77.1438 142.013Z" fill="url(#paint4_linear_6_6197)"></path><g style="mix-blend-mode:overlay" opacity="0.15"><path d="M76.4411 132.38H20.0628C20.2971 130.74 20.5313 129.057 20.7363 127.402H75.8848C76.1337 129.027 76.2801 130.74 76.4411 132.38Z" fill="white"></path><path d="M78.4614 109.542C77.993 111.254 77.5245 112.909 77.1146 114.519H20.5021C18.734 112.315 16.4305 110.602 13.8116 109.542H78.4614Z" fill="white"></path><path d="M101.754 96.6293H7.01869C7.01869 95.0775 7.01869 93.3939 7.19437 91.6517H99.9967C101.022 94.0673 101.519 95.8387 101.754 96.6293Z" fill="white"></path><path d="M93.7015 78.7832H9.24393C9.70319 77.0883 10.2604 75.4214 10.9129 73.791H90.3344C91.5495 75.4746 92.6475 77.1436 93.7015 78.7832Z" fill="white"></path><path d="M76.69 60.908H21.3512C25.5339 58.5588 30.0588 56.8793 34.7613 55.9304H62.4747C67.427 56.9005 72.2143 58.5768 76.69 60.908Z" fill="white"></path></g><path d="M40.9979 13.7087C40.9979 15.5126 40.463 17.276 39.4608 18.7758C38.4586 20.2757 37.0342 21.4447 35.3676 22.1351C33.701 22.8254 31.8671 23.006 30.0979 22.6541C28.3287 22.3022 26.7035 21.4335 25.428 20.158C24.1524 18.8824 23.2838 17.2573 22.9318 15.488C22.5799 13.7188 22.7605 11.8849 23.4509 10.2183C24.1412 8.55177 25.3102 7.12731 26.8101 6.12512C28.31 5.12293 30.0734 4.58801 31.8773 4.58801C33.075 4.58801 34.261 4.82393 35.3676 5.28228C36.4742 5.74064 37.4796 6.41246 38.3265 7.25939C39.1735 8.10632 39.8453 9.11178 40.3037 10.2183C40.762 11.3249 40.9979 12.5109 40.9979 13.7087Z" fill="#DB4503"></path><path d="M44.3944 45.6532C37.4112 45.1554 40.3391 41.5979 38.4506 38.7431C36.562 35.8884 29.5935 33.5752 31.0574 25.333C32.5214 17.0907 36.7816 16.8858 36.7816 16.8858C36.7816 16.8858 33.678 9.91716 41.1736 4.25152C48.6693 -1.41413 60.4397 -0.696771 65.6076 2.23121C70.7755 5.15919 69.9996 8.73133 69.9996 8.73133C69.9996 8.73133 76.9096 6.69638 79.7059 14.5873C82.5021 22.4782 70.8341 27.3679 65.8126 26.2992C60.7911 25.2305 53.9543 36.3568 53.9543 36.3568" fill="#ED6A29"></path><path d="M42.8279 55.7547C42.8279 55.7547 43.7063 60.3956 50.1479 60.8933C56.5894 61.3911 58.1998 57.1016 58.1998 57.1016L58.5658 53.588L59.0928 48.142L43.2671 36.2983L43.1207 36.1812C43.1289 36.2639 43.1289 36.3473 43.1207 36.43C43.7209 39.358 43.4867 45.7117 43.1939 50.3233C43.0475 53.427 42.8279 55.7547 42.8279 55.7547Z" fill="url(#paint5_linear_6_6197)"></path><path d="M43.2378 50.3232C45.3896 51.9722 47.8818 53.1208 50.5333 53.6856C53.1848 54.2503 55.9288 54.217 58.5658 53.5879L59.0928 48.1419L43.2671 36.2982L43.1646 36.43C43.7648 39.3726 43.5306 45.7117 43.2378 50.3232Z" fill="url(#paint6_linear_6_6197)"></path><path d="M67.3497 16.4467C54.7301 22.3026 39.8999 21.7463 39.8999 21.7463C39.8999 21.7463 41.3639 32.697 40.3391 33.3704C39.3143 34.0438 39.1972 29.4615 37.1769 28.7735C35.1566 28.0854 32.902 30.501 34.0439 34.6294C35.1859 38.7579 39.5778 37.2207 39.5778 37.2207C39.5778 37.2207 47.0149 51.9777 59.2978 50.3966C71.5807 48.8155 69.8824 29.1541 67.3497 16.4467Z" fill="url(#paint7_linear_6_6197)"></path><path d="M64.7878 149.421C63.8184 148.837 63.12 147.893 62.8456 146.795C62.5712 145.698 62.7431 144.536 63.3238 143.565L104.725 73.2054C105.312 72.2391 106.256 71.5432 107.352 71.2691C108.449 70.9949 109.609 71.1647 110.581 71.7414C111.548 72.3277 112.244 73.2718 112.518 74.3683C112.792 75.4649 112.622 76.6253 112.045 77.5974L70.6437 147.869C70.362 148.356 69.9867 148.783 69.5396 149.125C69.0924 149.467 68.5822 149.717 68.0381 149.861C67.494 150.005 66.9268 150.041 66.369 149.965C65.8112 149.89 65.2739 149.705 64.7878 149.421Z" fill="#E6E6E6"></path><path d="M105.355 69.382L115.115 75.1381C116.162 75.7555 116.921 76.7634 117.224 77.9402C117.528 79.1169 117.352 80.3661 116.734 81.4129L114.288 85.5617C113.67 86.6085 112.662 87.3672 111.486 87.6709C110.309 87.9745 109.06 87.7983 108.013 87.181L98.2526 81.4248C97.2091 80.8094 96.4528 79.8047 96.1501 78.6317C95.8474 77.4587 96.0231 76.2135 96.6385 75.1701L99.1001 70.9961C99.7182 69.9556 100.723 69.2019 101.895 68.8995C103.067 68.597 104.31 68.7705 105.355 69.382Z" fill="url(#paint8_linear_6_6197)"></path><path d="M148.03 8.26281C141.014 4.12684 132.93 2.16395 124.799 2.62229C116.667 3.08064 108.854 5.93965 102.348 10.8379C95.8414 15.7361 90.9332 22.4535 88.244 30.1409C85.5548 37.8283 85.2054 46.1404 87.2398 54.0264C89.2742 61.9124 93.6012 69.0182 99.6737 74.4452C105.746 79.8723 113.291 83.377 121.356 84.5162C129.42 85.6555 137.64 84.3781 144.979 80.8456C152.317 77.3131 158.443 71.6842 162.582 64.6704C165.332 60.0114 167.137 54.8564 167.893 49.4998C168.65 44.1432 168.344 38.69 166.993 33.4517C165.641 28.2134 163.271 23.2927 160.018 18.9707C156.764 14.6487 152.691 11.0101 148.03 8.26281ZM110.757 71.4779C105.267 68.2441 100.86 63.4546 98.0925 57.7154C95.3252 51.9762 94.3223 45.5452 95.2107 39.2359C96.0992 32.9266 98.839 27.0225 103.084 22.2707C107.328 17.5188 112.887 14.1327 119.056 12.5407C125.226 10.9486 131.729 11.2222 137.743 13.3268C143.756 15.4314 149.011 19.2725 152.842 24.364C156.672 29.4556 158.906 35.5689 159.262 41.9305C159.617 48.2921 158.077 54.6162 154.838 60.1027C150.498 67.4532 143.417 72.7801 135.152 74.913C126.886 77.0459 118.112 75.8104 110.757 71.4779Z" fill="#E6E6E6"></path><path d="M7.53104 107.375L26.358 105.691V121.151L68.4038 120.053C68.4038 120.053 77.3341 113.641 79.4715 114.007C81.609 114.373 91.3884 118.399 92.1351 120.712C92.8817 123.025 86.3816 133.229 84.3174 134.459C82.2531 135.689 69.6774 132.043 69.6774 132.043C69.6774 132.043 34.0293 140.827 23.6935 141.896C13.3577 142.965 9.30247 134.459 8.55583 126.451C7.8092 118.443 7.53104 107.375 7.53104 107.375Z" fill="url(#paint9_linear_6_6197)"></path><path d="M91.3006 112.514C91.3006 112.587 97.1566 127.241 101.753 132.38C106.35 137.519 115.208 133.844 117.169 127.007C119.131 120.17 99.0158 101.695 99.0158 101.695" fill="url(#paint10_linear_6_6197)"></path><path d="M92.2376 114.519C92.2376 114.519 83.8929 109.19 83.1902 107.053C82.4874 104.915 88.358 94.4772 90.2173 93.3646C92.0766 92.2519 99.0013 94.6675 100.187 97.7565C101.373 100.846 99.5722 106.321 98.2253 108.546C96.8785 110.771 93.9798 115.383 92.2376 114.519Z" fill="url(#paint11_linear_6_6197)"></path><defs><linearGradient id="paint0_linear_6_6197" x1="-5.73266" y1="328.628" x2="131.268" y2="99.689" gradientUnits="userSpaceOnUse"><stop stop-color="#FFD5D3"></stop><stop offset="1" stop-color="#FE96A6"></stop></linearGradient><linearGradient id="paint1_linear_6_6197" x1="48.0104" y1="324.924" x2="170.019" y2="121.034" gradientUnits="userSpaceOnUse"><stop stop-color="#FFD5D3"></stop><stop offset="1" stop-color="#FE96A6"></stop></linearGradient><linearGradient id="paint2_linear_6_6197" x1="120.61" y1="24.1911" x2="93.0574" y2="145.541" gradientUnits="userSpaceOnUse"><stop stop-color="#FFD5D3"></stop><stop offset="1" stop-color="#FE96A6"></stop></linearGradient><linearGradient id="paint3_linear_6_6197" x1="43.2378" y1="141.647" x2="71.1708" y2="19.9163" gradientUnits="userSpaceOnUse"><stop stop-color="#FF607E"></stop><stop offset="1" stop-color="#FF92C9"></stop></linearGradient><linearGradient id="paint4_linear_6_6197" x1="30.911" y1="128.969" x2="145.937" y2="38.2307" gradientUnits="userSpaceOnUse"><stop stop-color="#FF607E"></stop><stop offset="1" stop-color="#FF92C9"></stop></linearGradient><linearGradient id="paint5_linear_6_6197" x1="52.2399" y1="68.9145" x2="83.1711" y2="-9.61833" gradientUnits="userSpaceOnUse"><stop stop-color="#FFD5D3"></stop><stop offset="1" stop-color="#FE96A6"></stop></linearGradient><linearGradient id="paint6_linear_6_6197" x1="57.6405" y1="76.1964" x2="63.3442" y2="40.0797" gradientUnits="userSpaceOnUse"><stop stop-color="#FFD5D3"></stop><stop offset="1" stop-color="#FE96A6"></stop></linearGradient><linearGradient id="paint7_linear_6_6197" x1="81.5739" y1="59.4309" x2="1.34279" y2="-114.906" gradientUnits="userSpaceOnUse"><stop stop-color="#FFD5D3"></stop><stop offset="1" stop-color="#FE96A6"></stop></linearGradient><linearGradient id="paint8_linear_6_6197" x1="128.695" y1="19.9209" x2="100.908" y2="93.9536" gradientUnits="userSpaceOnUse"><stop stop-color="white"></stop><stop offset="1" stop-color="#C5C9EC"></stop></linearGradient><linearGradient id="paint9_linear_6_6197" x1="51.2458" y1="146.244" x2="46.4" y2="35.8591" gradientUnits="userSpaceOnUse"><stop stop-color="#FFD5D3"></stop><stop offset="1" stop-color="#FE96A6"></stop></linearGradient><linearGradient id="paint10_linear_6_6197" x1="77.0413" y1="86.6743" x2="147.401" y2="174.704" gradientUnits="userSpaceOnUse"><stop stop-color="#FFD5D3"></stop><stop offset="1" stop-color="#FE96A6"></stop></linearGradient><linearGradient id="paint11_linear_6_6197" x1="78.3004" y1="85.664" x2="148.66" y2="173.694" gradientUnits="userSpaceOnUse"><stop stop-color="#FFD5D3"></stop><stop offset="1" stop-color="#FE96A6"></stop></linearGradient></defs></svg>