<svg xmlns="http://www.w3.org/2000/svg" width="79" height="253" viewBox="0 0 79 253" fill="none"><g clip-path="url(#clip0_22_151)"><path d="M47.564 146.291L46.77 146.344L51.3414 213.516L52.1354 213.462L47.564 146.291Z" fill="#81A358"></path><path d="M29.5261 29.9298L28.7317 29.9775L39.8136 212.164L40.608 212.116L29.5261 29.9298Z" fill="#81A358"></path><path d="M45.6224 3.50586H44.8266V216.042H45.6224V3.50586Z" fill="#81A358"></path><path d="M55.0508 87.252L52.1456 214.502L52.9412 214.52L55.8464 87.27L55.0508 87.252Z" fill="#81A358"></path><path d="M44.7579 46.9806C44.7579 46.9806 22.5327 28.1394 29.1271 9.34848C35.7216 -9.44243 68.2925 0.7189 57.9468 34.6331C56.6802 37.4566 54.8621 40.002 52.5981 42.1216C50.3341 44.2412 47.6691 45.8928 44.7579 46.9806Z" fill="#71A334"></path><path d="M51.5477 37.5027L50.7519 37.4344L52.4737 17.2628L53.53 14.2676L51.5477 37.5027Z" fill="#60892C"></path><path d="M40.6087 37.9845L39.8129 37.9665L40.464 6.0874L41.1549 11.1645L40.6087 37.9845Z" fill="#60892C"></path><path d="M36.4958 32.7888L32.6252 10.9092L34.0251 14.2675L37.2808 32.6485L36.4958 32.7888Z" fill="#60892C"></path><path d="M30.7116 77.8999C30.7116 77.8999 11.449 53.1187 21.4764 35.597C31.5038 18.0754 96.0342 32.5623 66.8601 95.7668C37.6859 158.971 15.1315 116.46 15.1315 116.46L30.7116 77.8999Z" fill="#86BC44"></path><path d="M47.583 123.04L46.8162 122.839L64.3171 57.3832L66.4043 52.6621L47.583 123.04Z" fill="#7BA840"></path><path d="M42.0484 116.812L41.2526 116.776L44.624 43.0041L45.6116 38.8403L42.0484 116.812Z" fill="#7BA840"></path><path d="M34.2711 92.6171L30.9648 39.8652L32.0391 44.2915L35.0669 92.5668L34.2711 92.6171Z" fill="#7BA840"></path><path d="M45.2173 100.182C45.2173 100.182 42.3234 57.6634 17.7758 73.3261C-6.77174 88.9888 -12.8272 150.388 45.2173 169.046V100.182Z" fill="#70A333"></path><path d="M49.0698 141.058L24.2184 81.366L22.9812 76.3213L49.8077 140.755L49.0698 141.058Z" fill="#699331"></path><path d="M53.1176 145.264C50.893 145.185 47.2249 142.427 41.9038 136.832C37.7546 132.475 32.6469 126.423 26.7108 118.854C16.6291 105.967 10.4325 97.0394 10.3566 96.9207L8.1138 92.3794C8.20423 92.5088 17.273 105.511 27.3438 118.383C44.0923 139.799 50.618 144.401 53.1393 144.491L53.1176 145.264Z" fill="#699331"></path><path d="M56.8363 153.286C51.7177 153.286 41.2562 147.638 25.7268 136.495C14.2018 128.225 4.02253 119.84 3.9321 119.757L7.11901 121.317C10.9896 124.442 44.9858 152.495 56.8327 152.495L56.8363 153.286Z" fill="#699331"></path><path d="M22.1311 150.568C22.7425 150.899 26.4539 151.51 36.0291 153.15C41.3648 154.063 54.3801 156.202 59.969 156.339L59.9473 157.13C54.2318 156.993 40.9632 154.804 35.5227 153.865C31.1059 153.106 26.6239 152.279 23.2236 151.6C17.7975 150.521 17.6058 150.309 17.4792 150.162L22.1311 150.568Z" fill="#699331"></path><path d="M53.0995 193.468C53.0995 193.468 32.8422 172.228 37.5737 139.598C42.3053 106.967 79.2641 107.003 79 138.703C78.7359 170.402 72.051 179.218 53.0995 193.468Z" fill="#B1D045"></path><path d="M54.6912 190.893L53.9894 190.706L64.1108 123.993L65.5469 119.509L55.4364 186.514L74.887 131.443L75.0353 133.471L54.6912 190.893Z" fill="#9EB24E"></path><path d="M52.8934 191.397L42.0304 139.774L41.9399 135.801L52.7125 186.615L49.8295 122.274L51.0051 128.85L53.6277 191.192L52.8934 191.397Z" fill="#9EB24E"></path><path d="M72.4019 212.162L59.5674 252.821H30.8816L18.0471 212.162H72.4019Z" fill="url(#paint0_linear_22_151)"></path><path d="M72.4019 212.162C72.4019 212.162 44.1321 216.591 44.1321 252.821H30.8816L18.0471 212.162H72.4019Z" fill="url(#paint1_linear_22_151)"></path></g><defs><linearGradient id="paint0_linear_22_151" x1="18.0471" y1="232.491" x2="72.4019" y2="232.491" gradientUnits="userSpaceOnUse"><stop stop-color="#BAD0DE"></stop><stop offset="1" stop-color="#F5F2FF"></stop></linearGradient><linearGradient id="paint1_linear_22_151" x1="18.0471" y1="232.491" x2="72.4019" y2="232.491" gradientUnits="userSpaceOnUse"><stop stop-color="#9FA0AD"></stop><stop offset="0.99" stop-color="#55B5FF"></stop></linearGradient><clipPath id="clip0_22_151"><rect width="79" height="256" fill="white"></rect></clipPath></defs></svg>