<svg xmlns="http://www.w3.org/2000/svg" width="219" height="362" viewBox="0 0 219 362" fill="none"><path d="M99.2133 97.4448L90.9414 115.375L105.516 124.787L113.921 106.681L99.2133 97.4448Z" fill="url(#paint0_linear_6_5879)"></path><path d="M217.312 343.424H194.48L154.795 203.29L150.608 343.424H127.746L118.696 157.166L118.549 154.024L181.168 151.865L204.647 276.316L217.312 343.424Z" fill="url(#paint1_linear_6_5879)"></path><path d="M127.746 343.424L95.2022 359.357C94.9657 359.526 94.7848 359.761 94.6823 360.033C94.5798 360.305 94.5604 360.602 94.6264 360.885C94.6925 361.168 94.8411 361.425 95.0535 361.623C95.2658 361.822 95.5323 361.953 95.8193 362H150.446C150.82 361.977 151.172 361.813 151.428 361.54C151.685 361.267 151.828 360.906 151.827 360.531L150.593 343.424H127.746Z" fill="#1E2C66"></path><path d="M194.435 343.424L181.535 358.505C181.27 358.813 181.099 359.19 181.043 359.592C180.987 359.994 181.047 360.404 181.218 360.773C181.388 361.141 181.661 361.453 182.004 361.67C182.347 361.888 182.745 362.003 183.152 362H216.342C216.634 362.001 216.923 361.941 217.191 361.825C217.459 361.709 217.7 361.538 217.898 361.325C218.097 361.111 218.249 360.858 218.346 360.583C218.442 360.307 218.48 360.015 218.458 359.724L217.297 343.424H194.435Z" fill="#1E2C66"></path><path d="M154.795 203.29L150.593 343.424H144.716C141.895 329.621 149.124 318.137 144.716 300.208C139.941 280.868 150.314 274.436 146.964 246.433C143.614 218.43 154.795 203.29 154.795 203.29Z" fill="url(#paint2_linear_6_5879)"></path><path d="M204.647 276.316C202.708 270.035 200.357 263.889 197.609 257.916C189.014 239.429 192.746 234.421 189.014 223.746C185.282 213.07 190.483 209.751 184.724 198.165C178.964 186.579 182.476 185.096 179.669 169.222C176.863 153.348 163.052 156.344 143.467 158.591C129.818 160.147 123.221 160.059 118.696 157.122L118.549 153.98L181.168 151.821L204.647 276.316Z" fill="url(#paint3_linear_6_5879)"></path><path d="M183.137 152.893C182.887 154.949 172.852 155.169 161.921 155.169H153.238C148.639 155.169 144.422 155.169 141.102 155.434C128.349 156.271 119.665 157.812 118.549 153.965C118.044 151.886 117.895 149.736 118.108 147.607C118.299 144.332 118.842 140.015 119.386 133.935C120.356 122.863 120.591 95.844 120.591 95.844L113.862 106.681L99.1692 97.4446C101.019 91.4244 103.278 85.537 105.928 79.8232C106.795 77.9877 107.72 76.1374 108.719 74.3606C110.128 71.7757 111.76 69.3189 113.597 67.0184C116.057 64.1305 119.05 61.7425 122.413 59.9845C124.278 58.9658 126.206 58.0682 128.187 57.2973C132.333 55.6666 136.636 54.4659 141.028 53.7143L153.914 51.7612C189.337 58.0609 181.829 107.489 181.829 107.489C181.829 107.489 181.668 113.363 181.506 120.338C181.506 122.026 181.506 123.789 181.389 125.565C181.389 128.502 181.256 131.439 181.212 133.994C181.124 138.59 181.08 142.32 181.124 143.613C181.315 147.856 183.548 149.398 183.137 152.893Z" fill="url(#paint4_linear_6_5879)"></path><path d="M183.137 152.893C182.711 156.403 153.855 154.582 141.102 155.419C128.349 156.256 119.665 157.798 118.549 153.951C118.044 151.871 117.895 149.721 118.108 147.592C121.267 147.592 125.601 147.592 131.478 147.504C149.594 147.313 166.593 136.491 165.095 113.333C163.596 90.1761 175.115 79.9116 175.115 79.9116L174.718 106.902L181.55 120.118C181.33 129.472 181.095 140.926 181.168 143.393C181.315 147.857 183.548 149.398 183.137 152.893Z" fill="url(#paint5_linear_6_5879)"></path><g style="mix-blend-mode:overlay" opacity="0.15"><path d="M176.819 125.022C170.38 125.022 164.205 127.578 159.651 132.127C155.097 136.676 152.536 142.846 152.532 149.281C152.533 151.26 152.769 153.232 153.238 155.155H161.921C161.17 153.287 160.786 151.293 160.79 149.281C160.793 145.035 162.484 140.963 165.49 137.962C168.495 134.961 172.57 133.275 176.819 133.275C178.31 133.28 179.792 133.487 181.227 133.892C181.227 131.278 181.33 128.356 181.403 125.463C179.893 125.169 178.358 125.022 176.819 125.022Z" fill="white"></path></g><g style="mix-blend-mode:overlay" opacity="0.15"><path d="M138.957 94.3024C136.09 94.3024 133.288 95.1523 130.905 96.7446C128.522 98.3368 126.665 100.6 125.57 103.247C124.474 105.895 124.189 108.807 124.75 111.617C125.312 114.426 126.694 117.006 128.723 119.03C130.752 121.053 133.336 122.43 136.148 122.985C138.96 123.541 141.874 123.25 144.521 122.15C147.167 121.049 149.428 119.189 151.016 116.804C152.605 114.419 153.449 111.617 153.443 108.752C153.436 104.917 151.906 101.242 149.19 98.5327C146.474 95.8238 142.794 94.3024 138.957 94.3024ZM138.957 118.341C137.066 118.341 135.218 117.781 133.646 116.732C132.073 115.683 130.847 114.191 130.123 112.446C129.398 110.701 129.207 108.781 129.573 106.927C129.94 105.073 130.848 103.37 132.183 102.032C133.518 100.694 135.219 99.7811 137.073 99.4089C138.926 99.0368 140.848 99.2219 142.597 99.9409C144.345 100.66 145.841 101.881 146.895 103.449C147.95 105.017 148.516 106.862 148.521 108.752C148.525 110.01 148.281 111.256 147.802 112.419C147.323 113.582 146.619 114.64 145.73 115.531C144.842 116.421 143.786 117.128 142.624 117.61C141.461 118.093 140.215 118.341 138.957 118.341Z" fill="white"></path></g><g style="mix-blend-mode:overlay" opacity="0.15"><path d="M128.26 57.1947C126.28 57.9656 124.351 58.8632 122.486 59.882C123.996 60.5861 125.316 61.6389 126.338 62.9535C127.36 64.2681 128.055 65.8069 128.365 67.4427C128.675 69.0786 128.591 70.7646 128.121 72.3618C127.65 73.9589 126.807 75.4213 125.659 76.6283C124.512 77.8352 123.093 78.7522 121.522 79.3034C119.95 79.8547 118.269 80.0244 116.619 79.7986C114.968 79.5728 113.395 78.958 112.029 78.0048C110.664 77.0517 109.544 75.7875 108.763 74.3168C107.764 76.0936 106.839 77.9438 105.972 79.7794C107.405 81.4538 109.171 82.8124 111.157 83.7694C113.143 84.7263 115.306 85.2607 117.51 85.3386C119.713 85.4166 121.909 85.0364 123.958 84.2222C126.007 83.408 127.864 82.1776 129.412 80.6087C130.961 79.0398 132.166 77.1667 132.952 75.108C133.739 73.0493 134.089 70.8498 133.981 68.6489C133.872 66.4479 133.308 64.2934 132.323 62.3217C131.339 60.3501 129.955 58.6042 128.26 57.1947Z" fill="white"></path></g><path d="M128.554 18.9416C120.811 17.4731 120.708 11.0119 122.677 8.76522C124.646 6.5185 127.908 8.29532 127.908 8.29532C127.908 8.29532 123.324 4.09556 126.6 0.953087C129.877 -2.18939 134.622 3.39071 136.782 4.03682C138.942 4.68294 152.738 2.87675 157.939 7.54641C159.399 8.85699 160.369 10.6253 160.69 12.5603C161.01 14.4954 160.662 16.4818 159.702 18.1926C159.702 18.1926 164.889 18.4717 163.728 24.6391C162.568 30.8066 159.32 31.6289 158.498 35.8287C157.675 40.0284 150.608 43.5821 146.935 40.234" fill="#1E2C66"></path><path d="M155.912 52.7893C155.912 52.7893 155.486 57.4883 149.182 58.663C142.879 59.8378 140.69 55.6234 140.69 55.6234L140.014 52.1872L138.956 46.798L153.649 33.4498L153.781 33.303C153.781 33.3911 153.781 33.4792 153.781 33.5673C153.473 36.5042 154.325 42.8626 155.059 47.4294C155.471 50.4838 155.912 52.7893 155.912 52.7893Z" fill="url(#paint6_linear_6_5879)"></path><path d="M155.001 47.3854C153.016 49.2448 150.64 50.6371 148.047 51.4603C145.454 52.2835 142.709 52.5168 140.014 52.1431L138.956 46.7539L153.649 33.4058L153.766 33.5232C153.384 36.5189 154.237 42.8185 155.001 47.3854Z" fill="url(#paint7_linear_6_5879)"></path><path d="M127.555 15.9314C140.778 20.4983 155.471 18.5452 155.471 18.5452C155.471 18.5452 155.059 29.632 156.176 30.19C157.293 30.748 156.925 26.1812 158.88 25.2854C160.834 24.3896 163.287 26.5923 162.567 30.7921C161.847 34.9918 157.307 33.8611 157.307 33.8611C157.307 33.8611 151.328 49.3679 138.912 48.9567C126.497 48.5456 126.292 28.8537 127.555 15.9314Z" fill="url(#paint8_linear_6_5879)"></path><path d="M158.307 52.7012C185.649 59.5001 189.719 66.3577 193.363 77.841C197.007 89.3242 194.48 108.781 194.48 108.781L174.718 106.96L175.144 78.2668L158.307 52.7012Z" fill="url(#paint9_linear_6_5879)"></path><path d="M124.999 105.565H5.91571C3.05131 105.565 0.729248 107.886 0.729248 110.749V183.364C0.729248 186.226 3.05131 188.547 5.91571 188.547H124.999C127.863 188.547 130.185 186.226 130.185 183.364V110.749C130.185 107.886 127.863 105.565 124.999 105.565Z" fill="white"></path><path d="M24.7073 140.852H15.8918C14.5366 140.852 13.4381 141.95 13.4381 143.304V177.313C13.4381 178.668 14.5366 179.766 15.8918 179.766H24.7073C26.0624 179.766 27.1609 178.668 27.1609 177.313V143.304C27.1609 141.95 26.0624 140.852 24.7073 140.852Z" fill="url(#paint10_linear_6_5879)"></path><path d="M52.1384 140.852H43.3229C41.9678 140.852 40.8693 141.95 40.8693 143.304V177.313C40.8693 178.668 41.9678 179.766 43.3229 179.766H52.1384C53.4936 179.766 54.5921 178.668 54.5921 177.313V143.304C54.5921 141.95 53.4936 140.852 52.1384 140.852Z" fill="url(#paint11_linear_6_5879)"></path><path d="M79.5693 140.852H70.7538C69.3987 140.852 68.3002 141.95 68.3002 143.304V177.313C68.3002 178.668 69.3987 179.766 70.7538 179.766H79.5693C80.9245 179.766 82.023 178.668 82.023 177.313V143.304C82.023 141.95 80.9245 140.852 79.5693 140.852Z" fill="url(#paint12_linear_6_5879)"></path><path d="M107.015 140.852H98.1995C96.8444 140.852 95.7458 141.95 95.7458 143.304V177.313C95.7458 178.668 96.8444 179.766 98.1995 179.766H107.015C108.37 179.766 109.469 178.668 109.469 177.313V143.304C109.469 141.95 108.37 140.852 107.015 140.852Z" fill="url(#paint13_linear_6_5879)"></path><path d="M23.1646 125.022H14.687C14.3544 125.018 14.0368 124.883 13.803 124.647C13.5692 124.411 13.4381 124.092 13.4381 123.759C13.4381 123.427 13.5692 123.108 13.803 122.871C14.0368 122.635 14.3544 122.5 14.687 122.496H23.1646C23.4997 122.496 23.8211 122.629 24.058 122.866C24.295 123.103 24.4281 123.424 24.4281 123.759C24.4281 124.094 24.295 124.415 24.058 124.652C23.8211 124.889 23.4997 125.022 23.1646 125.022Z" fill="#84A2CE"></path><path d="M39.6055 133.26H14.687C14.3544 133.256 14.0368 133.121 13.803 132.885C13.5692 132.649 13.4381 132.33 13.4381 131.997C13.4494 131.673 13.5855 131.365 13.8181 131.138C14.0507 130.911 14.3619 130.782 14.687 130.778H39.6643C39.9994 130.778 40.3208 130.911 40.5577 131.148C40.7947 131.385 40.9278 131.706 40.9278 132.041C40.9222 132.208 40.8834 132.373 40.8136 132.525C40.7439 132.677 40.6446 132.814 40.5216 132.927C40.3986 133.04 40.2543 133.128 40.097 133.185C39.9397 133.243 39.7727 133.268 39.6055 133.26Z" fill="#84A2CE"></path><path d="M13.4381 157.401L20.7109 164.744C21.3944 165.436 22.2087 165.986 23.1066 166.362C24.0045 166.737 24.9681 166.93 25.9415 166.93C26.9148 166.93 27.8784 166.737 28.7763 166.362C29.6742 165.986 30.4886 165.436 31.172 164.744L42.4852 153.437C43.1687 152.744 43.983 152.194 44.8809 151.819C45.7789 151.443 46.7425 151.25 47.7158 151.25C48.6891 151.25 49.6527 151.443 50.5506 151.819C51.4485 152.194 52.2629 152.744 52.9463 153.437L56.5607 156.931C57.2441 157.624 58.0585 158.174 58.9564 158.549C59.8543 158.925 60.8179 159.118 61.7912 159.118C62.7645 159.118 63.7281 158.925 64.6261 158.549C65.524 158.174 66.3383 157.624 67.0218 156.931L69.1669 154.788C69.8503 154.095 70.6646 153.545 71.5626 153.17C72.4605 152.794 73.4241 152.601 74.3974 152.601C75.3707 152.601 76.3343 152.794 77.2323 153.17C78.1302 153.545 78.9445 154.095 79.628 154.788L88.4435 163.598C89.1269 164.291 89.9412 164.841 90.8392 165.216C91.7371 165.592 92.7007 165.785 93.674 165.785C94.6473 165.785 95.6109 165.592 96.5088 165.216C97.4068 164.841 98.2211 164.291 98.9045 163.598L107.118 155.39C107.801 154.697 108.615 154.147 109.513 153.772C110.411 153.396 111.375 153.203 112.348 153.203C113.322 153.203 114.285 153.396 115.183 153.772C116.081 154.147 116.895 154.697 117.579 155.39" stroke="url(#paint14_linear_6_5879)" stroke-width="1.61" stroke-linecap="round" stroke-linejoin="round"></path><path d="M194.48 108.752C194.48 108.752 194.48 140.294 185.664 142.35C176.849 144.406 134.431 132.247 134.431 132.247C131.368 132.063 128.294 132.161 125.248 132.541C121.472 133.157 111.805 135.61 112.025 133.583C112.245 131.557 122.31 128.077 122.927 127.856C122.251 127.959 111.467 129.589 111.173 127.342C110.879 125.096 123.089 121.615 123.089 121.615C123.089 121.615 109.351 122.452 110.115 120.147C110.879 117.841 120.708 116.784 124.132 116.784C127.555 116.784 136.532 122.247 136.532 122.247H174.733V106.975L194.48 108.752Z" fill="url(#paint15_linear_6_5879)"></path><path d="M183.886 122.232H174.718V116.432L183.886 122.232Z" fill="url(#paint16_linear_6_5879)"></path><path d="M53.2844 104.802C49.2146 106.96 51.0365 117.401 52.9318 117.753C54.8271 118.106 55.2385 108.223 55.2385 108.223C55.2385 108.223 54.6068 119.501 57.8391 119.633C61.0715 119.765 60.4985 108.296 60.4985 108.296C60.4985 108.296 61.3359 118.385 64.6271 118.664C67.9182 118.943 66.0963 111.512 66.8016 108.854C66.9369 108.139 67.2425 107.467 67.6926 106.894C68.1427 106.322 68.724 105.866 69.3874 105.565C66.979 104.108 64.2448 103.276 61.4328 103.142C58.6208 103.009 55.82 103.579 53.2844 104.802Z" fill="url(#paint17_linear_6_5879)"></path><defs><linearGradient id="paint0_linear_6_5879" x1="93.8064" y1="152.306" x2="106.81" y2="89.9969" gradientUnits="userSpaceOnUse"><stop stop-color="#FFD5D3"></stop><stop offset="1" stop-color="#FE96A6"></stop></linearGradient><linearGradient id="paint1_linear_6_5879" x1="85.8871" y1="12.8621" x2="226.279" y2="494.113" gradientUnits="userSpaceOnUse"><stop stop-color="#2A77FF"></stop><stop offset="1" stop-color="#C7E7FF"></stop></linearGradient><linearGradient id="paint2_linear_6_5879" x1="95.9662" y1="129.442" x2="256.298" y2="558.785" gradientUnits="userSpaceOnUse"><stop stop-color="#2A77FF"></stop><stop offset="1" stop-color="#C7E7FF"></stop></linearGradient><linearGradient id="paint3_linear_6_5879" x1="135.092" y1="114.831" x2="295.424" y2="544.174" gradientUnits="userSpaceOnUse"><stop stop-color="#2A77FF"></stop><stop offset="1" stop-color="#C7E7FF"></stop></linearGradient><linearGradient id="paint4_linear_6_5879" x1="174.748" y1="209.193" x2="107.568" y2="-24.3826" gradientUnits="userSpaceOnUse"><stop stop-color="#FF5B3E"></stop><stop offset="1" stop-color="#FFEC75"></stop></linearGradient><linearGradient id="paint5_linear_6_5879" x1="155.662" y1="222.601" x2="113.115" y2="-410.303" gradientUnits="userSpaceOnUse"><stop stop-color="#FF5B3E"></stop><stop offset="1" stop-color="#FFEC75"></stop></linearGradient><linearGradient id="paint6_linear_6_5879" x1="160.951" y1="71.1742" x2="122.461" y2="-3.76311" gradientUnits="userSpaceOnUse"><stop stop-color="#FFD5D3"></stop><stop offset="1" stop-color="#FE96A6"></stop></linearGradient><linearGradient id="paint7_linear_6_5879" x1="156.308" y1="78.9276" x2="147.076" y2="43.6383" gradientUnits="userSpaceOnUse"><stop stop-color="#FFD5D3"></stop><stop offset="1" stop-color="#FE96A6"></stop></linearGradient><linearGradient id="paint8_linear_6_5879" x1="130.876" y1="64.6691" x2="193.199" y2="-116.455" gradientUnits="userSpaceOnUse"><stop stop-color="#FFD5D3"></stop><stop offset="1" stop-color="#FE96A6"></stop></linearGradient><linearGradient id="paint9_linear_6_5879" x1="214.021" y1="197.901" x2="146.841" y2="-35.6748" gradientUnits="userSpaceOnUse"><stop stop-color="#FF5B3E"></stop><stop offset="1" stop-color="#FFEC75"></stop></linearGradient><linearGradient id="paint10_linear_6_5879" x1="-6.44088" y1="111.556" x2="54.2174" y2="222.291" gradientUnits="userSpaceOnUse"><stop stop-color="white"></stop><stop offset="1" stop-color="#C5C9EC"></stop></linearGradient><linearGradient id="paint11_linear_6_5879" x1="20.9315" y1="91.6735" x2="61.2387" y2="195.023" gradientUnits="userSpaceOnUse"><stop stop-color="white"></stop><stop offset="1" stop-color="#C5C9EC"></stop></linearGradient><linearGradient id="paint12_linear_6_5879" x1="32.7442" y1="60.9977" x2="85.0892" y2="183.678" gradientUnits="userSpaceOnUse"><stop stop-color="white"></stop><stop offset="1" stop-color="#C5C9EC"></stop></linearGradient><linearGradient id="paint13_linear_6_5879" x1="79.0404" y1="91.9966" x2="113.196" y2="191.143" gradientUnits="userSpaceOnUse"><stop stop-color="white"></stop><stop offset="1" stop-color="#C5C9EC"></stop></linearGradient><linearGradient id="paint14_linear_6_5879" x1="12.248" y1="159.031" x2="118.651" y2="159.031" gradientUnits="userSpaceOnUse"><stop stop-color="#52C4FF"></stop><stop offset="1" stop-color="#2C84FF"></stop></linearGradient><linearGradient id="paint15_linear_6_5879" x1="140.396" y1="137.313" x2="255.419" y2="45.7673" gradientUnits="userSpaceOnUse"><stop stop-color="#FFD5D3"></stop><stop offset="1" stop-color="#FE96A6"></stop></linearGradient><linearGradient id="paint16_linear_6_5879" x1="161.642" y1="160.235" x2="188.695" y2="97.4927" gradientUnits="userSpaceOnUse"><stop stop-color="#FFD5D3"></stop><stop offset="1" stop-color="#FE96A6"></stop></linearGradient><linearGradient id="paint17_linear_6_5879" x1="48.3184" y1="141.087" x2="82.6509" y2="47.3584" gradientUnits="userSpaceOnUse"><stop stop-color="#FFD5D3"></stop><stop offset="1" stop-color="#FE96A6"></stop></linearGradient></defs></svg>