<svg xmlns="http://www.w3.org/2000/svg" width="136" height="284" viewBox="0 0 136 284" fill="none"><path d="M24.6583 55.9157L21.5602 53.7227C21.0509 51.2551 20.3228 48.8378 19.3845 46.4995C18.4098 44.7589 14.3196 40.6339 13.8845 40.9298C13.6237 41.7594 13.5462 42.6357 13.6574 43.4982C13.7686 44.3607 14.0658 45.1888 14.5285 45.9251C15.3043 47.2176 15.7078 48.6994 15.6946 50.2068C13.2892 49.735 10.951 48.9692 8.73249 47.9267C6.7831 46.7083 2.58843 40.2336 1.30044 40.9646C0.0124474 41.6956 -0.440102 49.3365 0.499783 53.1483C0.991314 54.8527 1.87794 56.4171 3.08764 57.7146C4.29734 59.012 5.796 60.0057 7.4619 60.6152C9.67525 61.4492 11.9586 62.0841 14.2848 62.5123L18.0965 65.9934L24.6583 55.9157Z" fill="#FEB19E"></path><path d="M121.084 269.549C121.989 274.77 123.05 280.114 122.406 285.213H98.4741C98.9615 280.671 105.001 274.3 105.436 269.549C105.367 269.549 113.895 265.963 121.084 269.549Z" fill="url(#paint0_linear_6_5426)"></path><path d="M121.084 261.664V269.548C118.668 270.818 115.98 271.482 113.251 271.482C110.522 271.482 107.834 270.818 105.419 269.548L104.653 261.664H121.084Z" fill="#FEB19E"></path><path d="M80.0071 261.403L79.4849 270.575C79.4849 270.575 70.5038 274.422 63.4547 268.33V259.227L80.0071 261.403Z" fill="#FEB19E"></path><path d="M61.279 264.361C64.3173 265.193 67.4425 265.666 70.5908 265.771C74.5345 265.973 78.4881 265.839 82.409 265.371C82.409 265.371 85.716 226.052 83.0182 192.599L100.267 145.605L101.102 143.343L96.6814 109.489L67.6667 112.239C67.6667 112.239 56.2663 181.234 55.7093 191.625C55.1523 202.016 61.279 264.361 61.279 264.361Z" fill="url(#paint1_linear_6_5426)"></path><g style="mix-blend-mode:multiply" opacity="0.51"><path d="M73.7934 265.771C76.6712 265.966 79.5618 265.832 82.409 265.371C82.409 265.371 85.716 226.052 83.0182 192.599L100.267 145.605L85.4201 130.584C85.4201 130.584 87.9091 153.699 78.2666 166.457C67.0576 181.269 68.9199 198.187 73.776 219.195C80.5467 248.575 71.3915 251.342 73.7934 265.771Z" fill="#E58C33"></path></g><path d="M76.613 121.046C76.613 121.046 79.3108 135.266 85.3156 142.194L101.363 265.058C106.094 266.557 111.089 267.037 116.019 266.467H116.454C118.849 266.214 121.218 265.76 123.538 265.11L122.215 154.186C123.966 142.325 124.41 130.307 123.538 118.349L105.68 114.606L105.558 114.502L102.355 115.216L76.613 121.046Z" fill="url(#paint2_linear_6_5426)"></path><g style="mix-blend-mode:multiply" opacity="0.51"><path d="M112.851 164.821C109.666 197.125 106.533 213.416 114.017 233.571C119.709 248.94 118.734 259.592 116.436 266.346C118.831 266.092 121.201 265.638 123.52 264.988L122.198 154.064C123.949 142.203 124.392 130.185 123.52 118.227L105.68 114.606L105.558 114.502L102.355 115.216L100.284 123.344C100.284 123.344 116.019 132.516 112.851 164.821Z" fill="#E58C33"></path></g><path d="M79.485 270.575C80.4881 275.357 80.7697 280.261 80.3204 285.126H65.4389L64.0291 282.95C58.531 285.023 52.6211 285.769 46.7804 285.126C36.3373 284.238 38.0778 281.088 38.4433 279.904C38.8088 278.721 42.2377 280.34 51.0099 276.302C59.7822 272.264 60.2521 268.156 61.4531 267.46C62.6541 266.763 63.5069 268.417 63.5069 268.417C65.781 270.076 68.4328 271.143 71.2226 271.52C74.0124 271.896 76.8521 271.572 79.485 270.575Z" fill="url(#paint3_linear_6_5426)"></path><g style="mix-blend-mode:screen" opacity="0.23"><path d="M116.924 285.3C116.924 285.3 111.981 276.598 106.481 276.598C100.98 276.598 98.0216 285.3 98.0216 285.3H116.924Z" fill="#5D83E4"></path></g><path d="M16.9652 68.7262C17.2437 69.0047 18.0269 69.7009 19.106 70.693C23.144 74.4004 31.6726 82.1109 36.5113 86.3578C42.5161 91.7882 48.2599 96.9054 53.7947 96.9576C59.3296 97.0098 71.2 83.5903 71.2 83.5903C71.2 83.5903 71.5133 96.244 69.2854 103.798C67.0576 111.352 64.2553 114.502 67.8234 120.089C71.3915 125.676 83.2271 133.892 98.77 132.76C101.764 132.551 104.601 132.238 107.229 131.82C118.264 130.08 125.731 126.599 126.236 120.107C126.88 112.135 125.539 87.9417 126.688 75.5491C127.123 70.9193 127.541 66.6202 127.889 63.0521C128.498 57.0647 128.933 53.1311 128.933 53.1311C124.721 49.006 116.993 46.169 110.867 42.8446L84.9328 42.5835C84.9328 42.5835 76.996 44.6895 73.132 47.3874C69.268 50.0852 53.9862 73.3386 53.9862 73.3386C48.832 69.327 43.4443 65.6247 37.8515 62.2515L27.8783 56.1074L23.8403 53.6359C21.4455 55.4746 19.3596 57.6839 17.6614 60.1802C15.6946 63.4872 15.5902 67.4382 16.9652 68.7262Z" fill="url(#paint4_linear_6_5426)"></path><path d="M88.5879 33.985L88.4313 41.4692C88.6908 42.632 89.0882 43.7597 89.6148 44.8285C90.3306 46.2964 91.2251 47.6702 92.2778 48.9187C95.5093 48.7827 98.6595 47.8643 101.458 46.2423C104.256 44.6203 106.619 42.3433 108.343 39.6069C107.267 35.7347 106.815 31.716 107.003 27.7017L88.5879 33.985Z" fill="#FEB19E"></path><path d="M88.5879 33.985L88.4313 41.4692C88.6909 42.632 89.0882 43.7597 89.6149 44.8285C106.289 44.3237 107.02 27.7017 107.02 27.7017L88.5879 33.985Z" fill="#FF856A"></path><path d="M92.2779 48.9187L96.5074 56.4552C96.5074 56.4552 110.832 55.5327 112.886 43.8015L108.099 37.4834C108.099 37.4834 106.637 48.0484 92.2779 48.9187Z" fill="#849FF7"></path><path d="M92.626 48.8843L85.6639 54.4714C85.6639 54.4714 80.4423 43.2972 88.5357 39.1025V41.4697C89.2746 44.2376 90.6788 46.783 92.626 48.8843Z" fill="#849FF7"></path><path d="M111.424 25.2826C111.424 25.2826 115.044 17.4502 113.025 12.5071C111.424 8.55608 108.517 8.85197 108.517 8.85197C108.88 7.68542 108.83 6.42966 108.377 5.2952C107.924 4.16074 107.094 3.21654 106.028 2.62088C103.205 1.08019 100.072 0.194194 96.86 0.0284865C93.6482 -0.137221 90.4404 0.421604 87.4739 1.66359C79.8156 4.57027 81.8346 10.871 81.8346 10.871C80.6215 12.8843 80.2393 15.2906 80.7688 17.5807C81.2982 19.8709 82.6979 21.8652 84.6716 23.1417C91.8774 28.6766 104.914 30.8 104.914 30.8L111.424 25.2826Z" fill="url(#paint5_linear_6_5426)"></path><path d="M84.6543 12.0371C84.6543 12.0371 83.0356 22.6543 83.9929 29.2509C84.8283 35.1339 85.8204 37.3966 88.1876 39.1545C89.6496 40.2685 92.4345 40.4599 95.9329 39.6245C98.3228 39.2225 100.594 38.2951 102.582 36.9093C105.016 35.0039 106.719 32.3176 107.403 29.3032C108.027 29.2075 108.623 28.9794 109.151 28.6342C109.68 28.2889 110.128 27.8345 110.466 27.3015C111.841 25.3696 111.998 21.7144 109.387 21.2445C106.776 20.7746 105.506 25.0563 105.541 25.2651L105.123 28.0326L102.93 22.3584C102.062 22.0219 101.328 21.4116 100.838 20.6202C100.348 19.8287 100.129 18.8992 100.215 17.9723C100.234 16.2982 100.595 14.6457 101.276 13.1162C97.8188 14.8957 93.9505 15.7246 90.0673 15.5182C84.5151 14.9264 84.6543 12.0371 84.6543 12.0371Z" fill="#FEB19E"></path><g style="mix-blend-mode:screen" opacity="0.74"><path d="M16.9652 68.7261L19.1757 70.6929C20.642 65.1072 23.6591 60.0505 27.8783 56.1073L23.8229 53.6357C21.4353 55.477 19.3556 57.686 17.6614 60.1801C15.6946 63.4871 15.5902 67.4381 16.9652 68.7261Z" fill="#597AF5"></path></g><path d="M88.1528 57.9521C88.1528 57.9521 86.186 76.715 84.0103 91.2136C81.8347 105.712 80.0941 113.179 80.3378 114.798C80.9822 117.238 82.1725 119.499 83.8189 121.412C84.6891 122.073 90.4677 118.871 91.512 116.973C92.5563 115.076 93.6006 86.0617 93.3221 76.0014C93.0437 66.2371 92.713 59.2053 92.713 59.2053L88.1528 57.9521Z" fill="url(#paint6_linear_6_5426)"></path><path d="M94.3142 52.522C94.3142 52.522 91.3728 50.7815 89.2493 51.5822L87.0388 53.3227C87.1535 55.5374 87.4563 57.7384 87.9439 59.9019C89.3007 60.544 90.7964 60.8371 92.2952 60.7547C93.8443 60.5459 95.4978 54.6281 95.4978 54.6281L94.3142 52.522Z" fill="url(#paint7_linear_6_5426)"></path><g style="mix-blend-mode:multiply" opacity="0.3"><path d="M71.1131 89.5952C71.1131 89.5952 70.4169 98.4371 87.0215 103.519C100.319 107.575 98.8397 124.127 107.212 131.907C118.247 130.167 125.713 126.686 126.218 120.194C126.862 112.222 125.522 88.0287 126.671 75.6362C127.106 71.0063 127.524 66.7072 127.872 63.1392L117.986 64.3227C117.986 64.3227 112.659 85.766 92.4694 81.728L71.1131 89.5952Z" fill="#405EE6"></path></g><path d="M63.0196 65.4367L63.1066 65.6629L72.0529 92.38C72.3454 93.2563 72.8546 94.0444 73.5332 94.6712C74.2117 95.2981 75.0377 95.7433 75.9343 95.9655L98.5612 101.57H98.6482C98.8622 101.627 99.0876 101.626 99.3008 101.566C99.514 101.506 99.7072 101.39 99.8602 101.23C100.013 101.07 100.12 100.871 100.17 100.656C100.221 100.44 100.212 100.215 100.145 100.004L91.4424 71.5981C91.2816 71.0851 90.99 70.6227 90.5963 70.2565C90.2026 69.8903 89.7204 69.6329 89.1971 69.5095L64.4294 63.9398C64.2257 63.8847 64.0108 63.886 63.8077 63.9434C63.6046 64.0009 63.4209 64.1124 63.2762 64.266C63.1315 64.4197 63.0312 64.6097 62.986 64.8159C62.9408 65.022 62.9524 65.2366 63.0196 65.4367Z" fill="#ABDAF7"></path><path d="M63.1066 65.6631L72.0529 92.3802C72.3454 93.2564 72.8546 94.0445 73.5332 94.6714C74.2117 95.2982 75.0377 95.7434 75.9343 95.9657L98.5612 101.57L89.8585 73.2692C89.6977 72.7562 89.4061 72.2938 89.0124 71.9276C88.6187 71.5614 88.1365 71.3039 87.6132 71.1806L63.1066 65.6631Z" fill="#D4E9F4"></path><path d="M77.8141 84.4435C78.5974 86.184 80.1116 87.0891 81.1733 86.5843C82.2351 86.0796 82.4613 84.3042 81.6607 82.6159C80.86 80.9276 79.3458 79.9703 78.2841 80.4751C77.2223 80.9798 77.0135 82.7552 77.8141 84.4435Z" fill="white"></path><path d="M103.591 103.92L103.87 104.163C107.49 107.401 122.65 116.521 128.376 113.632C134.103 110.743 134.59 99.2552 135.617 88.2028C136.644 77.1505 132.71 54.0885 128.829 53.1834C124.948 52.2783 117.202 61.6598 116.819 68.8481C116.541 74.0697 117.202 75.2881 117.898 80.0746C118.36 83.4322 118.61 86.8155 118.647 90.2044C118.647 90.2044 116.332 89.7519 111.685 88.9338C110.327 88.7076 109.057 88.4465 107.89 88.2202C106.272 87.8895 104.879 87.611 103.87 87.4544C103.466 87.4133 103.061 87.5142 102.725 87.7398C102.388 87.9654 102.14 88.3016 102.025 88.6902C101.381 91.388 100.145 94.7994 99.8317 97.2013C99.588 100.108 100.493 100.996 103.591 103.92Z" fill="url(#paint8_linear_6_5426)"></path><g style="mix-blend-mode:screen" opacity="0.74"><path d="M103.591 103.92L103.87 104.163C110.658 97.5492 109.387 91.3355 108.03 88.2548C106.411 87.9241 105.018 87.6456 104.009 87.489C103.606 87.4478 103.201 87.5488 102.864 87.7744C102.527 88 102.279 88.3361 102.164 88.7247C101.52 91.4226 100.284 94.834 99.971 97.2359C99.588 100.108 100.493 100.995 103.591 103.92Z" fill="#597AF5"></path></g><path d="M104.723 89.1946L100.458 87.9762C100.458 87.9762 98.1435 84.3037 97.2732 82.4762C96.403 80.6486 95.8286 78.9951 94.9235 79.848C94.0184 80.7008 94.5058 84.5126 94.5058 85.0695C94.6443 86.0896 94.8419 87.1009 95.0976 88.0981C95.0976 88.0981 89.5627 87.4019 88.1354 86.3575C86.7082 85.3132 82.2177 80.3353 80.9471 80.8053C79.6765 81.2752 82.6876 89.0902 83.1053 91.6487C83.3178 93.1592 84.0205 94.5582 85.1054 95.6305C86.1903 96.7028 87.5973 97.3891 89.1101 97.584C92.4015 98.1964 95.7365 98.5456 99.0834 98.6283L102.094 99.7422C103.665 98.5434 104.78 96.8461 105.258 94.9292C105.736 93.0123 105.547 90.99 104.723 89.1946Z" fill="#FEB19E"></path><defs><linearGradient id="paint0_linear_6_5426" x1="122.598" y1="276.633" x2="98.4741" y2="276.633" gradientUnits="userSpaceOnUse"><stop stop-color="#1B3151"></stop><stop offset="1" stop-color="#23406D"></stop></linearGradient><linearGradient id="paint1_linear_6_5426" x1="87.9787" y1="188.074" x2="53.3596" y2="184.75" gradientUnits="userSpaceOnUse"><stop stop-color="#F79239"></stop><stop offset="1" stop-color="#F7C759"></stop></linearGradient><linearGradient id="paint2_linear_6_5426" x1="123.99" y1="190.58" x2="76.5782" y2="190.58" gradientUnits="userSpaceOnUse"><stop stop-color="#F79239"></stop><stop offset="1" stop-color="#F7C759"></stop></linearGradient><linearGradient id="paint3_linear_6_5426" x1="80.5467" y1="276.249" x2="38.0778" y2="276.249" gradientUnits="userSpaceOnUse"><stop stop-color="#1B3151"></stop><stop offset="1" stop-color="#23406D"></stop></linearGradient><linearGradient id="paint4_linear_6_5426" x1="128.644" y1="90.0066" x2="14.8126" y2="80.8879" gradientUnits="userSpaceOnUse"><stop stop-color="#3855E1"></stop><stop offset="1" stop-color="#5C7EF7"></stop></linearGradient><linearGradient id="paint5_linear_6_5426" x1="96.0892" y1="6.39684" x2="102.309" y2="64.1149" gradientUnits="userSpaceOnUse"><stop stop-color="#3F2323"></stop><stop offset="0.66" stop-color="#C08376"></stop><stop offset="1" stop-color="#FEB19E"></stop></linearGradient><linearGradient id="paint6_linear_6_5426" x1="92.2413" y1="89.7443" x2="82.5871" y2="89.7218" gradientUnits="userSpaceOnUse"><stop stop-color="#F79239"></stop><stop offset="1" stop-color="#F7C759"></stop></linearGradient><linearGradient id="paint7_linear_6_5426" x1="94.6743" y1="58.7192" x2="90.1803" y2="55.5305" gradientUnits="userSpaceOnUse"><stop stop-color="#F79239"></stop><stop offset="1" stop-color="#F9D279"></stop></linearGradient><linearGradient id="paint8_linear_6_5426" x1="135.939" y1="84.3923" x2="101.222" y2="81.6112" gradientUnits="userSpaceOnUse"><stop stop-color="#3855E1"></stop><stop offset="1" stop-color="#5C7EF7"></stop></linearGradient></defs></svg>